<?xml version="1.0" encoding="UTF-8" standalone="no" ?>
<!DOCTYPE svg PUBLIC "-//W3C//DTD SVG 1.1//EN" "http://www.w3.org/Graphics/SVG/1.1/DTD/svg11.dtd">
<svg xmlns="http://www.w3.org/2000/svg" xmlns:xlink="http://www.w3.org/1999/xlink" version="1.1" width="500" height="500" viewBox="0 0 500 500" xml:space="preserve">
<desc>Created with Fabric.js 4.2.0</desc>
<defs>
</defs>
<rect x="0" y="0" width="100%" height="100%" fill="transparent"></rect>
<g transform="matrix(1 0 0 1 250 250)" id="54952adb-661f-4e02-bf32-2649200a490c"  >
<rect style="stroke: none; stroke-width: 1; stroke-dasharray: none; stroke-linecap: butt; stroke-dashoffset: 0; stroke-linejoin: miter; stroke-miterlimit: 4; fill: rgb(255,255,255); fill-rule: nonzero; opacity: 1; visibility: hidden;" vector-effect="non-scaling-stroke"  x="-250" y="-250" rx="0" ry="0" width="500" height="500" />
</g>
<g transform="matrix(0 0 0 0 0 0)" id="9add9dd8-8353-49ea-96d0-86a44f4ea7b7"  >
</g>
<g transform="matrix(6.36 0 0 9 251.55 191.98)" id="0336fe9c-c38e-4ef9-bbb0-e2ebf2d59729"  >
<rect style="stroke: rgb(0,0,0); stroke-width: 2; stroke-dasharray: none; stroke-linecap: butt; stroke-dashoffset: 0; stroke-linejoin: miter; stroke-miterlimit: 4; fill: rgb(255,255,255); fill-rule: nonzero; opacity: 1;" vector-effect="non-scaling-stroke"  x="-37.4585" y="-19.4165" rx="0" ry="0" width="74.917" height="38.833" />
</g>
<g transform="matrix(1 0 0 2.28 250 195.83)" style="" id="2c1697b8-c56c-47c7-9dfc-487e832fd06f"  >
		<text xml:space="preserve" font-family="Lato" font-size="63" font-style="normal" font-weight="700" style="stroke: none; stroke-width: 1; stroke-dasharray: none; stroke-linecap: butt; stroke-dashoffset: 0; stroke-linejoin: miter; stroke-miterlimit: 4; fill: rgb(0,0,0); fill-rule: nonzero; opacity: 1; white-space: pre;" ><tspan x="-196.97" y="-15.8" >C</tspan><tspan x="-154.41" y="-15.8" >l</tspan><tspan x="-137.03" y="-15.8" >i</tspan><tspan x="-119.64" y="-15.8" >c</tspan><tspan x="-89.27" y="-15.8" >k</tspan><tspan x="-54.21" y="-15.8" style="white-space: pre; "> </tspan><tspan x="-41.74" y="-15.8" >H</tspan><tspan x="6.21" y="-15.8" >e</tspan><tspan x="40.19" y="-15.8" >r</tspan><tspan x="66.24" y="-15.8" >e</tspan><tspan x="100.23" y="-15.8" style="white-space: pre; "> </tspan><tspan x="112.71" y="-15.8" >f</tspan><tspan x="135.1" y="-15.8" >o</tspan><tspan x="171.23" y="-15.8" >r</tspan><tspan x="-209.85" y="55.39" >L</tspan><tspan x="-178.16" y="55.39" >o</tspan><tspan x="-142.03" y="55.39" >c</tspan><tspan x="-111.67" y="55.39" >a</tspan><tspan x="-78.37" y="55.39" >t</tspan><tspan x="-53.68" y="55.39" >i</tspan><tspan x="-36.29" y="55.39" >o</tspan><tspan x="-0.16" y="55.39" >n</tspan><tspan x="35.97" y="55.39" style="white-space: pre; "> </tspan><tspan x="48.45" y="55.39" >D</tspan><tspan x="95.85" y="55.39" >a</tspan><tspan x="129.15" y="55.39" >t</tspan><tspan x="153.85" y="55.39" >a</tspan><tspan x="187.14" y="55.39" >!</tspan></text>
</g>
</svg>