<?xml version="1.0" standalone="no"?>
<!DOCTYPE svg PUBLIC "-//W3C//DTD SVG 20010904//EN"
 "http://www.w3.org/TR/2001/REC-SVG-20010904/DTD/svg10.dtd">
<svg version="1.0" xmlns="http://www.w3.org/2000/svg"
 width="512.000000pt" height="512.000000pt" viewBox="0 0 512.000000 512.000000"
 preserveAspectRatio="xMidYMid meet">

<g transform="translate(0.000000,512.000000) scale(0.100000,-0.100000)"
fill="#000000" stroke="none">
<path d="M610 4569 c-157 -26 -298 -153 -345 -312 -22 -74 -22 -958 0 -1030
52 -172 197 -293 376 -317 40 -5 145 -10 232 -10 l157 0 0 -145 0 -145 -307 0
c-351 0 -409 -8 -501 -64 -109 -66 -179 -161 -206 -276 -18 -76 -21 -299 -6
-381 23 -118 99 -230 201 -295 52 -32 147 -64 194 -64 l33 0 4 -358 c3 -303 7
-363 21 -400 41 -106 133 -189 242 -217 71 -18 269 -20 347 -4 109 23 198 95
246 197 l27 57 3 363 3 362 1229 0 1229 0 3 -363 3 -362 27 -57 c48 -102 137
-174 246 -197 78 -16 276 -14 347 4 109 28 201 111 242 217 14 37 18 97 21
401 l4 357 33 0 c47 0 142 32 194 64 102 65 178 177 201 295 15 82 12 305 -6
381 -27 115 -97 210 -206 276 -92 56 -150 64 -500 64 l-308 0 0 145 0 145 158
0 c86 0 191 5 231 10 179 24 324 145 376 317 22 72 22 956 0 1030 -49 163
-188 287 -355 313 -82 13 -3810 12 -3890 -1z m3900 -311 c71 -49 70 -44 70
-512 0 -399 -1 -422 -20 -461 -13 -26 -34 -49 -59 -63 l-39 -22 -1902 0 -1902
0 -39 22 c-25 14 -46 37 -59 63 -19 39 -20 62 -20 461 0 468 -1 463 70 512
l33 22 1917 0 1917 0 33 -22z m-720 -1503 l0 -145 -1230 0 -1230 0 0 145 0
145 1230 0 1230 0 0 -145z m964 -464 c59 -39 66 -62 66 -222 0 -135 -2 -149
-23 -180 -12 -19 -38 -42 -57 -51 -33 -17 -158 -18 -2180 -18 -2022 0 -2147 1
-2180 18 -19 9 -45 32 -57 51 -21 31 -23 45 -23 180 0 160 7 183 66 222 28 18
90 19 2194 19 2104 0 2166 -1 2194 -19z m-3724 -1094 c0 -246 -3 -336 -12
-345 -17 -17 -249 -17 -266 0 -9 9 -12 99 -12 345 l0 333 145 0 145 0 0 -333z
m3350 0 c0 -246 -3 -336 -12 -345 -17 -17 -249 -17 -266 0 -9 9 -12 99 -12
345 l0 333 145 0 145 0 0 -333z"/>
</g>
</svg>
